<svg width="40" height="40" viewBox="0 0 40 40" fill="none" xmlns="http://www.w3.org/2000/svg">
<circle cx="20" cy="20" r="19" stroke="#9B9B9B" stroke-width="2"/>
<path d="M20.1824 27.4362L20.1756 27.443C20.0885 27.5253 19.9525 27.5226 19.8691 27.4385C19.8689 27.4384 19.8687 27.4382 19.8686 27.438L12.5905 20.017L12.5905 20.017L12.5856 20.0121C10.871 18.2879 10.8715 15.5035 12.5852 13.7821L12.6012 13.7661C12.6014 13.766 12.6016 13.7658 12.6017 13.7656C14.3096 12.064 17.0758 12.071 18.777 13.7811C18.7772 13.7813 18.7774 13.7815 18.7776 13.7817L19.3133 14.322L20.0219 15.0368L20.7321 14.3236L21.2673 13.786L21.2688 13.7845L21.2891 13.7642C21.2893 13.764 21.2895 13.7638 21.2897 13.7636C22.9979 12.0637 25.7647 12.071 27.4659 13.7817L27.4659 13.7817C29.1806 15.5059 29.18 18.2903 27.4663 20.0117L27.4663 20.0117L27.4612 20.0169L20.1824 27.4362Z" stroke="#9B9B9B" stroke-width="2"/>
</svg>
