<svg width="30" height="30" viewBox="0 0 30 30" fill="none" xmlns="http://www.w3.org/2000/svg">
<circle cx="15" cy="15" r="14" stroke="#9B9B9B" stroke-width="2"/>
<path d="M16.1272 10.5162L16.1288 10.5146L16.1432 10.5002C16.1434 10.5 16.1437 10.4997 16.1439 10.4995C17.327 9.32236 19.2437 9.32733 20.4222 10.5124L20.4222 10.5125C21.6112 11.7081 21.6107 13.6388 20.4226 14.8323L20.4226 14.8322L20.4174 14.8375L15.0185 20.3407L9.62137 14.8376L9.62139 14.8376L9.61649 14.8326C8.42743 13.637 8.42799 11.7063 9.6161 10.5128L9.6274 10.5015C9.62759 10.5014 9.62778 10.5012 9.62797 10.501C10.8109 9.32259 12.7269 9.32736 13.9055 10.5119C13.9056 10.5121 13.9058 10.5123 13.906 10.5124L14.3074 10.9174L15.016 11.6322L15.7262 10.9189L16.1272 10.5162Z" stroke="#9B9B9B" stroke-width="2"/>
</svg>
