<svg width="20" height="20" viewBox="0 0 20 20" fill="none" xmlns="http://www.w3.org/2000/svg">
<path d="M10.1824 17.4362L10.1756 17.443C10.0885 17.5253 9.95251 17.5226 9.8691 17.4385C9.86892 17.4384 9.86875 17.4382 9.86857 17.438L2.59051 10.017L2.59053 10.017L2.58563 10.0121C0.87098 8.28786 0.871541 5.50346 2.58524 3.78212L2.60123 3.76612C2.60139 3.76597 2.60155 3.76581 2.60171 3.76565C4.30961 2.06398 7.07578 2.07102 8.77699 3.78106C8.77721 3.78127 8.77742 3.78149 8.77764 3.78171L9.31326 4.32202L10.0219 5.03684L10.7321 4.32355L11.2673 3.78603L11.2688 3.78449L11.2891 3.76418C11.2893 3.76397 11.2895 3.76377 11.2897 3.76357C12.9979 2.0637 15.7647 2.071 17.4659 3.78171L17.4659 3.78172C19.1806 5.50593 19.18 8.29033 17.4663 10.0117L17.4663 10.0117L17.4612 10.0169L10.1824 17.4362Z" stroke="currentColor" stroke-width="2"/>
</svg>
