<svg width="40" height="40" viewBox="0 0 40 40" fill="none" xmlns="http://www.w3.org/2000/svg">
<path d="M35.6873 33.4544H34.1027V13.8224C34.1027 13.2947 33.8223 12.8067 33.3665 12.541L25.3231 7.85205C24.8643 7.58454 24.2975 7.58279 23.8371 7.84736C23.3767 8.11189 23.0928 8.60243 23.0928 9.13344V33.4544H21.4059V5.27717C21.4059 4.77851 21.1553 4.31316 20.7389 4.03875C20.3225 3.76433 19.7961 3.71747 19.3378 3.91413L6.76809 9.3077C6.22304 9.54156 5.86971 10.0777 5.86971 10.6707V33.4544H4.29082C4.00057 33.4544 3.76526 33.6897 3.76526 33.9799V35.6893C3.76526 35.9796 4.00057 36.2149 4.29082 36.2149H35.6873C35.9775 36.2149 36.2128 35.9796 36.2128 35.6893V33.9799C36.2128 33.6897 35.9775 33.4544 35.6873 33.4544ZM27.1901 13.1629C27.1901 12.8727 27.4254 12.6373 27.7157 12.6373H29.3852C29.6755 12.6373 29.9108 12.8727 29.9108 13.1629V14.8325C29.9108 15.1227 29.6755 15.3581 29.3852 15.3581H27.7157C27.4254 15.3581 27.1901 15.1227 27.1901 14.8325V13.1629H27.1901ZM27.1901 17.3669C27.1901 17.0766 27.4254 16.8413 27.7157 16.8413H29.3852C29.6755 16.8413 29.9108 17.0766 29.9108 17.3669V19.0365C29.9108 19.3267 29.6755 19.562 29.3852 19.562H27.7157C27.4254 19.562 27.1901 19.3267 27.1901 19.0365V17.3669H27.1901ZM27.1901 21.5708C27.1901 21.2805 27.4254 21.0452 27.7157 21.0452H29.3852C29.6755 21.0452 29.9108 21.2805 29.9108 21.5708V23.2404C29.9108 23.5306 29.6755 23.7659 29.3852 23.7659H27.7157C27.4254 23.7659 27.1901 23.5306 27.1901 23.2404V21.5708H27.1901ZM27.1901 25.7747C27.1901 25.4845 27.4254 25.2492 27.7157 25.2492H29.3852C29.6755 25.2492 29.9108 25.4845 29.9108 25.7747V27.4444C29.9108 27.7346 29.6755 27.9699 29.3852 27.9699H27.7157C27.4254 27.9699 27.1901 27.7346 27.1901 27.4444V25.7747H27.1901ZM27.1901 29.9787C27.1901 29.6884 27.4254 29.4531 27.7157 29.4531H29.3852C29.6755 29.4531 29.9108 29.6884 29.9108 29.9787V31.6483C29.9108 31.9385 29.6755 32.1738 29.3852 32.1738H27.7157C27.4254 32.1738 27.1901 31.9385 27.1901 31.6483V29.9787H27.1901ZM14.7873 8.95896C14.7873 8.6687 15.0226 8.4334 15.3129 8.4334H16.9824C17.2727 8.4334 17.508 8.6687 17.508 8.95896V10.6285C17.508 10.9188 17.2727 11.1541 16.9824 11.1541H15.3129C15.0226 11.1541 14.7873 10.9188 14.7873 10.6285V8.95896ZM14.7873 13.1629C14.7873 12.8727 15.0226 12.6373 15.3129 12.6373H16.9824C17.2727 12.6373 17.508 12.8727 17.508 13.1629V14.8325C17.508 15.1227 17.2727 15.3581 16.9824 15.3581H15.3129C15.0226 15.3581 14.7873 15.1227 14.7873 14.8325V13.1629ZM14.7873 17.3669C14.7873 17.0766 15.0226 16.8413 15.3129 16.8413H16.9824C17.2727 16.8413 17.508 17.0766 17.508 17.3669V19.0365C17.508 19.3267 17.2727 19.562 16.9824 19.562H15.3129C15.0226 19.562 14.7873 19.3267 14.7873 19.0365V17.3669ZM14.7873 21.5708C14.7873 21.2805 15.0226 21.0452 15.3129 21.0452H16.9824C17.2727 21.0452 17.508 21.2805 17.508 21.5708V23.2404C17.508 23.5306 17.2727 23.7659 16.9824 23.7659H15.3129C15.0226 23.7659 14.7873 23.5306 14.7873 23.2404V21.5708ZM14.7873 25.7747C14.7873 25.4845 15.0226 25.2492 15.3129 25.2492H16.9824C17.2727 25.2492 17.508 25.4845 17.508 25.7747V27.4444C17.508 27.7346 17.2727 27.9699 16.9824 27.9699H15.3129C15.0226 27.9699 14.7873 27.7346 14.7873 27.4444V25.7747ZM14.7873 29.9787C14.7873 29.6884 15.0226 29.4531 15.3129 29.4531H16.9824C17.2727 29.4531 17.508 29.6884 17.508 29.9787V31.6483C17.508 31.9385 17.2727 32.1738 16.9824 32.1738H15.3129C15.0226 32.1738 14.7873 31.9385 14.7873 31.6483V29.9787ZM9.72602 13.1629C9.72602 12.8727 9.96133 12.6373 10.2516 12.6373H11.9212C12.2114 12.6373 12.4467 12.8727 12.4467 13.1629V14.8325C12.4467 15.1227 12.2114 15.3581 11.9212 15.3581H10.2516C9.96133 15.3581 9.72602 15.1227 9.72602 14.8325V13.1629ZM9.72602 17.3669C9.72602 17.0766 9.96133 16.8413 10.2516 16.8413H11.9212C12.2114 16.8413 12.4467 17.0766 12.4467 17.3669V19.0365C12.4467 19.3267 12.2114 19.562 11.9212 19.562H10.2516C9.96133 19.562 9.72602 19.3267 9.72602 19.0365V17.3669ZM9.72602 21.5708C9.72602 21.2805 9.96133 21.0452 10.2516 21.0452H11.9212C12.2114 21.0452 12.4467 21.2805 12.4467 21.5708V23.2404C12.4467 23.5306 12.2114 23.7659 11.9212 23.7659H10.2516C9.96133 23.7659 9.72602 23.5306 9.72602 23.2404V21.5708ZM9.72602 25.7747C9.72602 25.4845 9.96133 25.2492 10.2516 25.2492H11.9212C12.2114 25.2492 12.4467 25.4845 12.4467 25.7747V27.4444C12.4467 27.7346 12.2114 27.9699 11.9212 27.9699H10.2516C9.96133 27.9699 9.72602 27.7346 9.72602 27.4444V25.7747ZM9.72602 29.9787C9.72602 29.6884 9.96133 29.4531 10.2516 29.4531H11.9212C12.2114 29.4531 12.4467 29.6884 12.4467 29.9787V31.6483C12.4467 31.9385 12.2114 32.1738 11.9212 32.1738H10.2516C9.96133 32.1738 9.72602 31.9385 9.72602 31.6483V29.9787Z" fill="#C8C8C8"/>
</svg>
