<svg width="70" height="70" viewBox="0 0 70 70" fill="none" xmlns="http://www.w3.org/2000/svg">
<path d="M63.7601 59.666H60.8549V23.674C60.8549 22.7065 60.3409 21.812 59.5051 21.3248L44.7589 12.7284C43.9179 12.238 42.8788 12.2348 42.0347 12.7198C41.1906 13.2048 40.6701 14.1041 40.6701 15.0777V59.6661H37.5774V8.00783C37.5774 7.09362 37.1179 6.24047 36.3546 5.73738C35.5912 5.23428 34.6261 5.14838 33.7859 5.50891L10.7415 15.3971C9.74219 15.8259 9.09443 16.8087 9.09443 17.896V59.6661H6.19979C5.66766 59.6661 5.23627 60.0975 5.23627 60.6295V63.7635C5.23627 64.2955 5.66766 64.7269 6.19979 64.7269H63.7601C64.2921 64.7269 64.7235 64.2955 64.7235 63.7635V60.6295C64.7235 60.0974 64.2921 59.666 63.7601 59.666ZM48.1818 22.465C48.1818 21.9329 48.6132 21.5015 49.1454 21.5015H52.2062C52.7383 21.5015 53.1697 21.9329 53.1697 22.465V25.5259C53.1697 26.058 52.7383 26.4894 52.2062 26.4894H49.1454C48.6132 26.4894 48.1819 26.058 48.1819 25.5259V22.465H48.1818ZM48.1818 30.1722C48.1818 29.6401 48.6132 29.2087 49.1454 29.2087H52.2062C52.7383 29.2087 53.1697 29.6401 53.1697 30.1722V33.2332C53.1697 33.7653 52.7383 34.1967 52.2062 34.1967H49.1454C48.6132 34.1967 48.1819 33.7653 48.1819 33.2332V30.1722H48.1818ZM48.1818 37.8794C48.1818 37.3473 48.6132 36.9159 49.1454 36.9159H52.2062C52.7383 36.9159 53.1697 37.3473 53.1697 37.8794V40.9404C53.1697 41.4725 52.7383 41.9039 52.2062 41.9039H49.1454C48.6132 41.9039 48.1819 41.4725 48.1819 40.9404V37.8794H48.1818ZM48.1818 45.5866C48.1818 45.0546 48.6132 44.6232 49.1454 44.6232H52.2062C52.7383 44.6232 53.1697 45.0546 53.1697 45.5866V48.6477C53.1697 49.1797 52.7383 49.6111 52.2062 49.6111H49.1454C48.6132 49.6111 48.1819 49.1797 48.1819 48.6477V45.5866H48.1818ZM48.1818 53.2939C48.1818 52.7618 48.6132 52.3304 49.1454 52.3304H52.2062C52.7383 52.3304 53.1697 52.7618 53.1697 53.2939V56.3549C53.1697 56.887 52.7383 57.3184 52.2062 57.3184H49.1454C48.6132 57.3184 48.1819 56.887 48.1819 56.3549V53.2939H48.1818ZM25.4433 14.7578C25.4433 14.2256 25.8747 13.7942 26.4069 13.7942H29.4678C29.9999 13.7942 30.4313 14.2256 30.4313 14.7578V17.8187C30.4313 18.3508 29.9999 18.7822 29.4678 18.7822H26.4069C25.8747 18.7822 25.4433 18.3508 25.4433 17.8187V14.7578ZM25.4433 22.465C25.4433 21.9329 25.8747 21.5015 26.4069 21.5015H29.4678C29.9999 21.5015 30.4313 21.9329 30.4313 22.465V25.5259C30.4313 26.058 29.9999 26.4894 29.4678 26.4894H26.4069C25.8747 26.4894 25.4433 26.058 25.4433 25.5259V22.465ZM25.4433 30.1722C25.4433 29.6401 25.8747 29.2087 26.4069 29.2087H29.4678C29.9999 29.2087 30.4313 29.6401 30.4313 30.1722V33.2332C30.4313 33.7653 29.9999 34.1967 29.4678 34.1967H26.4069C25.8747 34.1967 25.4433 33.7653 25.4433 33.2332V30.1722ZM25.4433 37.8794C25.4433 37.3473 25.8747 36.9159 26.4069 36.9159H29.4678C29.9999 36.9159 30.4313 37.3473 30.4313 37.8794V40.9404C30.4313 41.4725 29.9999 41.9039 29.4678 41.9039H26.4069C25.8747 41.9039 25.4433 41.4725 25.4433 40.9404V37.8794ZM25.4433 45.5866C25.4433 45.0546 25.8747 44.6232 26.4069 44.6232H29.4678C29.9999 44.6232 30.4313 45.0546 30.4313 45.5866V48.6477C30.4313 49.1797 29.9999 49.6111 29.4678 49.6111H26.4069C25.8747 49.6111 25.4433 49.1797 25.4433 48.6477V45.5866ZM25.4433 53.2939C25.4433 52.7618 25.8747 52.3304 26.4069 52.3304H29.4678C29.9999 52.3304 30.4313 52.7618 30.4313 53.2939V56.3549C30.4313 56.887 29.9999 57.3184 29.4678 57.3184H26.4069C25.8747 57.3184 25.4433 56.887 25.4433 56.3549V53.2939ZM16.1643 22.465C16.1643 21.9329 16.5957 21.5015 17.1279 21.5015H20.1888C20.7209 21.5015 21.1523 21.9329 21.1523 22.465V25.5259C21.1523 26.058 20.7209 26.4894 20.1888 26.4894H17.1279C16.5957 26.4894 16.1643 26.058 16.1643 25.5259V22.465ZM16.1643 30.1722C16.1643 29.6401 16.5957 29.2087 17.1279 29.2087H20.1888C20.7209 29.2087 21.1523 29.6401 21.1523 30.1722V33.2332C21.1523 33.7653 20.7209 34.1967 20.1888 34.1967H17.1279C16.5957 34.1967 16.1643 33.7653 16.1643 33.2332V30.1722ZM16.1643 37.8794C16.1643 37.3473 16.5957 36.9159 17.1279 36.9159H20.1888C20.7209 36.9159 21.1523 37.3473 21.1523 37.8794V40.9404C21.1523 41.4725 20.7209 41.9039 20.1888 41.9039H17.1279C16.5957 41.9039 16.1643 41.4725 16.1643 40.9404V37.8794ZM16.1643 45.5866C16.1643 45.0546 16.5957 44.6232 17.1279 44.6232H20.1888C20.7209 44.6232 21.1523 45.0546 21.1523 45.5866V48.6477C21.1523 49.1797 20.7209 49.6111 20.1888 49.6111H17.1279C16.5957 49.6111 16.1643 49.1797 16.1643 48.6477V45.5866ZM16.1643 53.2939C16.1643 52.7618 16.5957 52.3304 17.1279 52.3304H20.1888C20.7209 52.3304 21.1523 52.7618 21.1523 53.2939V56.3549C21.1523 56.887 20.7209 57.3184 20.1888 57.3184H17.1279C16.5957 57.3184 16.1643 56.887 16.1643 56.3549V53.2939Z" fill="#C8C8C8"/>
</svg>
