<svg width="24" height="25" viewBox="0 0 24 25" fill="none" xmlns="http://www.w3.org/2000/svg">
<path d="M4.92893 16.8787C3.11929 17.4216 2 18.1716 2 19C2 20.6568 6.47715 22 12 22C17.5229 22 22 20.6568 22 19C22 18.1716 20.8807 17.4216 19.0711 16.8787" stroke="#7065F0" stroke-width="2" stroke-linecap="round" stroke-linejoin="round"/>
<path d="M12 18C12 18 18.5 13.752 18.5 8.8409C18.5 5.33892 15.5898 2.5 12 2.5C8.41015 2.5 5.5 5.33892 5.5 8.8409C5.5 13.752 12 18 12 18Z" stroke="#7065F0" stroke-width="2" stroke-linejoin="round"/>
<path d="M12 11.5C13.3807 11.5 14.5 10.3807 14.5 9C14.5 7.6193 13.3807 6.5 12 6.5C10.6193 6.5 9.5 7.6193 9.5 9C9.5 10.3807 10.6193 11.5 12 11.5Z" stroke="#7065F0" stroke-width="2" stroke-linejoin="round"/>
</svg>
