<svg width="32" height="32" viewBox="0 0 32 32" fill="none" xmlns="http://www.w3.org/2000/svg">
<g clip-path="url(#clip0_917_7056)">
<mask id="path-1-inside-1_917_7056" fill="white">
<path fill-rule="evenodd" clip-rule="evenodd" d="M24.4794 22.5205C24.4863 22.5137 24.4932 22.5069 24.5 22.5C29.1944 17.8056 29.1944 10.1944 24.5 5.5C19.8056 0.805581 12.1944 0.805581 7.5 5.5C2.80557 10.1944 2.80557 17.8056 7.5 22.5C7.50684 22.5069 7.5137 22.5137 7.52056 22.5205L16 31L24.4794 22.5205Z"/>
</mask>
<path fill-rule="evenodd" clip-rule="evenodd" d="M24.4794 22.5205C24.4863 22.5137 24.4932 22.5069 24.5 22.5C29.1944 17.8056 29.1944 10.1944 24.5 5.5C19.8056 0.805581 12.1944 0.805581 7.5 5.5C2.80557 10.1944 2.80557 17.8056 7.5 22.5C7.50684 22.5069 7.5137 22.5137 7.52056 22.5205L16 31L24.4794 22.5205Z" fill="#FF6633"/>
<path d="M24.4794 22.5205L23.0686 21.103L23.0652 21.1063L24.4794 22.5205ZM7.52056 22.5205L8.93477 21.1063L8.93142 21.103L7.52056 22.5205ZM16 31L14.5858 32.4142L16 33.8284L17.4142 32.4142L16 31ZM23.0858 21.0858C23.0801 21.0915 23.0743 21.0973 23.0686 21.103L25.8903 23.9381C25.8983 23.9301 25.9063 23.9222 25.9142 23.9142L23.0858 21.0858ZM23.0858 6.91422C26.9992 10.8276 26.9992 17.1724 23.0858 21.0858L25.9142 23.9142C31.3897 18.4388 31.3897 9.56126 25.9142 4.08579L23.0858 6.91422ZM8.91421 6.91422C12.8276 3.00084 19.1724 3.00084 23.0858 6.91422L25.9142 4.08579C20.4387 -1.38968 11.5613 -1.38968 6.08578 4.08579L8.91421 6.91422ZM8.91421 21.0858C5.00084 17.1724 5.00084 10.8276 8.91421 6.91422L6.08578 4.08579C0.610311 9.56126 0.610312 18.4388 6.08578 23.9142L8.91421 21.0858ZM8.93142 21.103C8.92568 21.0973 8.91994 21.0915 8.91421 21.0858L6.08578 23.9142C6.09374 23.9222 6.10171 23.9301 6.10969 23.9381L8.93142 21.103ZM17.4142 29.5858L8.93477 21.1063L6.10634 23.9347L14.5858 32.4142L17.4142 29.5858ZM23.0652 21.1063L14.5858 29.5858L17.4142 32.4142L25.8937 23.9347L23.0652 21.1063Z" fill="#FF6633" mask="url(#path-1-inside-1_917_7056)"/>
<circle cx="16" cy="13.8434" r="3.42483" transform="rotate(45 16 13.8434)" fill="white"/>
</g>
<defs>
<clipPath id="clip0_917_7056">
<rect width="32" height="32" fill="white"/>
</clipPath>
</defs>
</svg>
