<svg width="88" height="90" viewBox="0 0 88 90" fill="none" xmlns="http://www.w3.org/2000/svg">
<g filter="url(#filter0_f_542_1106)">
<ellipse cx="43.3408" cy="83.5" rx="12.5" ry="2.5" fill="black" fill-opacity="0.4"/>
</g>
<g filter="url(#filter1_d_542_1106)">
<mask id="path-2-inside-1_542_1106" fill="white">
<path fill-rule="evenodd" clip-rule="evenodd" d="M21.9533 62.7939C21.9423 62.7829 21.9313 62.7719 21.9203 62.7609C9.81401 50.6547 9.81401 31.0266 21.9203 18.9203C34.0265 6.81406 53.6546 6.81406 65.7609 18.9203C77.8671 31.0266 77.8671 50.6547 65.7609 62.7609C65.7505 62.7713 65.7402 62.7817 65.7298 62.792L43.8406 84.6812L21.9533 62.7939Z"/>
</mask>
<path fill-rule="evenodd" clip-rule="evenodd" d="M21.9533 62.7939C21.9423 62.7829 21.9313 62.7719 21.9203 62.7609C9.81401 50.6547 9.81401 31.0266 21.9203 18.9203C34.0265 6.81406 53.6546 6.81406 65.7609 18.9203C77.8671 31.0266 77.8671 50.6547 65.7609 62.7609C65.7505 62.7713 65.7402 62.7817 65.7298 62.792L43.8406 84.6812L21.9533 62.7939Z" fill="#FF6633"/>
<path d="M21.9533 62.7939L23.3675 61.3797L23.3654 61.3776L21.9533 62.7939ZM65.7298 62.792L64.3174 61.376L64.3156 61.3778L65.7298 62.792ZM43.8406 84.6812L42.4264 86.0954L43.8406 87.5096L45.2548 86.0954L43.8406 84.6812ZM23.3654 61.3776C23.3551 61.3673 23.3448 61.357 23.3345 61.3467L20.5061 64.1752C20.5177 64.1868 20.5294 64.1985 20.5411 64.2102L23.3654 61.3776ZM23.3345 61.3467C12.0093 50.0215 12.0093 31.6597 23.3345 20.3345L20.5061 17.5061C7.61875 30.3934 7.61875 51.2878 20.5061 64.1752L23.3345 61.3467ZM23.3345 20.3345C34.6597 9.00932 53.0215 9.00932 64.3467 20.3345L67.1751 17.5061C54.2878 4.6188 33.3934 4.6188 20.5061 17.5061L23.3345 20.3345ZM64.3467 20.3345C75.6719 31.6597 75.6719 50.0215 64.3467 61.3467L67.1751 64.1752C80.0624 51.2878 80.0624 30.3934 67.1751 17.5061L64.3467 20.3345ZM64.3467 61.3467C64.337 61.3564 64.3273 61.3661 64.3174 61.376L67.1421 64.2081C67.153 64.1972 67.164 64.1862 67.1751 64.1752L64.3467 61.3467ZM64.3156 61.3778L42.4264 83.267L45.2548 86.0954L67.144 64.2062L64.3156 61.3778ZM45.2548 83.267L23.3675 61.3797L20.5391 64.2081L42.4264 86.0954L45.2548 83.267Z" fill="white" mask="url(#path-2-inside-1_542_1106)"/>
</g>
<path d="M56.7537 51.8582H55.4257V35.4048C55.4257 34.9625 55.1907 34.5536 54.8086 34.3308L48.0675 30.4011C47.683 30.1769 47.208 30.1754 46.8221 30.3971C46.4363 30.6189 46.1983 31.03 46.1983 31.475V51.8583H44.7845V28.2431C44.7845 27.8252 44.5745 27.4352 44.2255 27.2052C43.8765 26.9752 43.4354 26.9359 43.0513 27.1007L32.5167 31.6211C32.0599 31.817 31.7637 32.2663 31.7637 32.7634V51.8583H30.4405C30.1972 51.8583 30 52.0555 30 52.2987V53.7314C30 53.9746 30.1972 54.1718 30.4405 54.1718H56.7537C56.997 54.1718 57.1942 53.9746 57.1942 53.7314V52.2987C57.1942 52.0555 56.997 51.8582 56.7537 51.8582ZM49.6323 34.8521C49.6323 34.6088 49.8294 34.4116 50.0727 34.4116H51.472C51.7152 34.4116 51.9124 34.6088 51.9124 34.8521V36.2514C51.9124 36.4946 51.7152 36.6918 51.472 36.6918H50.0728C49.8295 36.6918 49.6323 36.4946 49.6323 36.2514V34.8521H49.6323ZM49.6323 38.3754C49.6323 38.1321 49.8294 37.9349 50.0727 37.9349H51.472C51.7152 37.9349 51.9124 38.1321 51.9124 38.3754V39.7747C51.9124 40.018 51.7152 40.2152 51.472 40.2152H50.0728C49.8295 40.2152 49.6323 40.018 49.6323 39.7747V38.3754H49.6323ZM49.6323 41.8987C49.6323 41.6554 49.8294 41.4582 50.0727 41.4582H51.472C51.7152 41.4582 51.9124 41.6554 51.9124 41.8987V43.298C51.9124 43.5412 51.7152 43.7384 51.472 43.7384H50.0728C49.8295 43.7384 49.6323 43.5412 49.6323 43.298V41.8987H49.6323ZM49.6323 45.422C49.6323 45.1787 49.8294 44.9815 50.0727 44.9815H51.472C51.7152 44.9815 51.9124 45.1787 51.9124 45.422V46.8213C51.9124 47.0645 51.7152 47.2617 51.472 47.2617H50.0728C49.8295 47.2617 49.6323 47.0645 49.6323 46.8213V45.422H49.6323ZM49.6323 48.9453C49.6323 48.702 49.8294 48.5048 50.0727 48.5048H51.472C51.7152 48.5048 51.9124 48.702 51.9124 48.9453V50.3446C51.9124 50.5878 51.7152 50.7851 51.472 50.7851H50.0728C49.8295 50.7851 49.6323 50.5878 49.6323 50.3446V48.9453H49.6323ZM39.2375 31.3288C39.2375 31.0855 39.4347 30.8883 39.678 30.8883H41.0773C41.3205 30.8883 41.5177 31.0855 41.5177 31.3288V32.728C41.5177 32.9713 41.3205 33.1685 41.0773 33.1685H39.678C39.4347 33.1685 39.2375 32.9713 39.2375 32.728V31.3288ZM39.2375 34.8521C39.2375 34.6088 39.4347 34.4116 39.678 34.4116H41.0773C41.3205 34.4116 41.5177 34.6088 41.5177 34.8521V36.2514C41.5177 36.4946 41.3205 36.6918 41.0773 36.6918H39.678C39.4347 36.6918 39.2375 36.4946 39.2375 36.2514V34.8521ZM39.2375 38.3754C39.2375 38.1321 39.4347 37.9349 39.678 37.9349H41.0773C41.3205 37.9349 41.5177 38.1321 41.5177 38.3754V39.7747C41.5177 40.018 41.3205 40.2152 41.0773 40.2152H39.678C39.4347 40.2152 39.2375 40.018 39.2375 39.7747V38.3754ZM39.2375 41.8987C39.2375 41.6554 39.4347 41.4582 39.678 41.4582H41.0773C41.3205 41.4582 41.5177 41.6554 41.5177 41.8987V43.298C41.5177 43.5412 41.3205 43.7384 41.0773 43.7384H39.678C39.4347 43.7384 39.2375 43.5412 39.2375 43.298V41.8987ZM39.2375 45.422C39.2375 45.1787 39.4347 44.9815 39.678 44.9815H41.0773C41.3205 44.9815 41.5177 45.1787 41.5177 45.422V46.8213C41.5177 47.0645 41.3205 47.2617 41.0773 47.2617H39.678C39.4347 47.2617 39.2375 47.0645 39.2375 46.8213V45.422ZM39.2375 48.9453C39.2375 48.702 39.4347 48.5048 39.678 48.5048H41.0773C41.3205 48.5048 41.5177 48.702 41.5177 48.9453V50.3446C41.5177 50.5878 41.3205 50.7851 41.0773 50.7851H39.678C39.4347 50.7851 39.2375 50.5878 39.2375 50.3446V48.9453ZM34.9957 34.8521C34.9957 34.6088 35.1929 34.4116 35.4362 34.4116H36.8354C37.0787 34.4116 37.2759 34.6088 37.2759 34.8521V36.2514C37.2759 36.4946 37.0787 36.6918 36.8354 36.6918H35.4362C35.1929 36.6918 34.9957 36.4946 34.9957 36.2514V34.8521ZM34.9957 38.3754C34.9957 38.1321 35.1929 37.9349 35.4362 37.9349H36.8354C37.0787 37.9349 37.2759 38.1321 37.2759 38.3754V39.7747C37.2759 40.018 37.0787 40.2152 36.8354 40.2152H35.4362C35.1929 40.2152 34.9957 40.018 34.9957 39.7747V38.3754ZM34.9957 41.8987C34.9957 41.6554 35.1929 41.4582 35.4362 41.4582H36.8354C37.0787 41.4582 37.2759 41.6554 37.2759 41.8987V43.298C37.2759 43.5412 37.0787 43.7384 36.8354 43.7384H35.4362C35.1929 43.7384 34.9957 43.5412 34.9957 43.298V41.8987ZM34.9957 45.422C34.9957 45.1787 35.1929 44.9815 35.4362 44.9815H36.8354C37.0787 44.9815 37.2759 45.1787 37.2759 45.422V46.8213C37.2759 47.0645 37.0787 47.2617 36.8354 47.2617H35.4362C35.1929 47.2617 34.9957 47.0645 34.9957 46.8213V45.422ZM34.9957 48.9453C34.9957 48.702 35.1929 48.5048 35.4362 48.5048H36.8354C37.0787 48.5048 37.2759 48.702 37.2759 48.9453V50.3446C37.2759 50.5878 37.0787 50.7851 36.8354 50.7851H35.4362C35.1929 50.7851 34.9957 50.5878 34.9957 50.3446V48.9453Z" fill="white"/>
<defs>
<filter id="filter0_f_542_1106" x="26.8408" y="77" width="33" height="13" filterUnits="userSpaceOnUse" color-interpolation-filters="sRGB">
<feFlood flood-opacity="0" result="BackgroundImageFix"/>
<feBlend mode="normal" in="SourceGraphic" in2="BackgroundImageFix" result="shape"/>
<feGaussianBlur stdDeviation="2" result="effect1_foregroundBlur_542_1106"/>
</filter>
<filter id="filter1_d_542_1106" x="2.84058" y="3.84058" width="82" height="94.8406" filterUnits="userSpaceOnUse" color-interpolation-filters="sRGB">
<feFlood flood-opacity="0" result="BackgroundImageFix"/>
<feColorMatrix in="SourceAlpha" type="matrix" values="0 0 0 0 0 0 0 0 0 0 0 0 0 0 0 0 0 0 127 0" result="hardAlpha"/>
<feOffset dy="4"/>
<feGaussianBlur stdDeviation="5"/>
<feComposite in2="hardAlpha" operator="out"/>
<feColorMatrix type="matrix" values="0 0 0 0 0 0 0 0 0 0 0 0 0 0 0 0 0 0 0.2 0"/>
<feBlend mode="normal" in2="BackgroundImageFix" result="effect1_dropShadow_542_1106"/>
<feBlend mode="normal" in="SourceGraphic" in2="effect1_dropShadow_542_1106" result="shape"/>
</filter>
</defs>
</svg>
