<svg width="42" height="42" viewBox="0 0 42 42" fill="none" xmlns="http://www.w3.org/2000/svg">
<circle cx="21" cy="21" r="20" fill="#3056D3" stroke="white" stroke-width="2"/>
<path d="M30.8606 29.4569H29.8645V17.1168C29.8645 16.7851 29.6883 16.4784 29.4018 16.3114L24.3459 13.364C24.0576 13.1959 23.7013 13.1948 23.4119 13.3611C23.1225 13.5274 22.944 13.8357 22.944 14.1695V29.4569H21.8837V11.7455C21.8837 11.4321 21.7261 11.1396 21.4644 10.9671C21.2027 10.7946 20.8718 10.7652 20.5837 10.8888L12.6828 14.279C12.3402 14.426 12.1181 14.763 12.1181 15.1358V29.4569H11.1256C10.9432 29.4569 10.7953 29.6048 10.7953 29.7873V30.8618C10.7953 31.0442 10.9432 31.1921 11.1256 31.1921H30.8606C31.043 31.1921 31.1909 31.0442 31.1909 30.8618V29.7873C31.1909 29.6048 31.043 29.4569 30.8606 29.4569ZM25.5195 16.7023C25.5195 16.5198 25.6674 16.3719 25.8498 16.3719H26.8993C27.0817 16.3719 27.2296 16.5198 27.2296 16.7023V17.7517C27.2296 17.9342 27.0817 18.0821 26.8993 18.0821H25.8499C25.6674 18.0821 25.5195 17.9342 25.5195 17.7517V16.7023H25.5195ZM25.5195 19.3448C25.5195 19.1623 25.6674 19.0144 25.8498 19.0144H26.8993C27.0817 19.0144 27.2296 19.1623 27.2296 19.3448V20.3943C27.2296 20.5767 27.0817 20.7246 26.8993 20.7246H25.8499C25.6674 20.7246 25.5195 20.5767 25.5195 20.3943V19.3448H25.5195ZM25.5195 21.9872C25.5195 21.8048 25.6674 21.6569 25.8498 21.6569H26.8993C27.0817 21.6569 27.2296 21.8048 27.2296 21.9872V23.0367C27.2296 23.2192 27.0817 23.3671 26.8993 23.3671H25.8499C25.6674 23.3671 25.5195 23.2192 25.5195 23.0367V21.9872H25.5195ZM25.5195 24.6297C25.5195 24.4473 25.6674 24.2994 25.8498 24.2994H26.8993C27.0817 24.2994 27.2296 24.4473 27.2296 24.6297V25.6792C27.2296 25.8616 27.0817 26.0095 26.8993 26.0095H25.8499C25.6674 26.0095 25.5195 25.8616 25.5195 25.6792V24.6297H25.5195ZM25.5195 27.2722C25.5195 27.0898 25.6674 26.9419 25.8498 26.9419H26.8993C27.0817 26.9419 27.2296 27.0898 27.2296 27.2722V28.3217C27.2296 28.5041 27.0817 28.652 26.8993 28.652H25.8499C25.6674 28.652 25.5195 28.5041 25.5195 28.3217V27.2722H25.5195ZM17.7234 14.0598C17.7234 13.8774 17.8713 13.7295 18.0538 13.7295H19.1032C19.2857 13.7295 19.4336 13.8774 19.4336 14.0598V15.1093C19.4336 15.2917 19.2857 15.4396 19.1032 15.4396H18.0538C17.8713 15.4396 17.7234 15.2917 17.7234 15.1093V14.0598ZM17.7234 16.7023C17.7234 16.5198 17.8713 16.3719 18.0538 16.3719H19.1032C19.2857 16.3719 19.4336 16.5198 19.4336 16.7023V17.7517C19.4336 17.9342 19.2857 18.0821 19.1032 18.0821H18.0538C17.8713 18.0821 17.7234 17.9342 17.7234 17.7517V16.7023ZM17.7234 19.3448C17.7234 19.1623 17.8713 19.0144 18.0538 19.0144H19.1032C19.2857 19.0144 19.4336 19.1623 19.4336 19.3448V20.3943C19.4336 20.5767 19.2857 20.7246 19.1032 20.7246H18.0538C17.8713 20.7246 17.7234 20.5767 17.7234 20.3943V19.3448ZM17.7234 21.9872C17.7234 21.8048 17.8713 21.6569 18.0538 21.6569H19.1032C19.2857 21.6569 19.4336 21.8048 19.4336 21.9872V23.0367C19.4336 23.2192 19.2857 23.3671 19.1032 23.3671H18.0538C17.8713 23.3671 17.7234 23.2192 17.7234 23.0367V21.9872ZM17.7234 24.6297C17.7234 24.4473 17.8713 24.2994 18.0538 24.2994H19.1032C19.2857 24.2994 19.4336 24.4473 19.4336 24.6297V25.6792C19.4336 25.8616 19.2857 26.0095 19.1032 26.0095H18.0538C17.8713 26.0095 17.7234 25.8616 17.7234 25.6792V24.6297ZM17.7234 27.2722C17.7234 27.0898 17.8713 26.9419 18.0538 26.9419H19.1032C19.2857 26.9419 19.4336 27.0898 19.4336 27.2722V28.3217C19.4336 28.5041 19.2857 28.652 19.1032 28.652H18.0538C17.8713 28.652 17.7234 28.5041 17.7234 28.3217V27.2722ZM14.5421 16.7023C14.5421 16.5198 14.69 16.3719 14.8724 16.3719H15.9219C16.1043 16.3719 16.2522 16.5198 16.2522 16.7023V17.7517C16.2522 17.9342 16.1043 18.0821 15.9219 18.0821H14.8724C14.69 18.0821 14.5421 17.9342 14.5421 17.7517V16.7023ZM14.5421 19.3448C14.5421 19.1623 14.69 19.0144 14.8724 19.0144H15.9219C16.1043 19.0144 16.2522 19.1623 16.2522 19.3448V20.3943C16.2522 20.5767 16.1043 20.7246 15.9219 20.7246H14.8724C14.69 20.7246 14.5421 20.5767 14.5421 20.3943V19.3448ZM14.5421 21.9872C14.5421 21.8048 14.69 21.6569 14.8724 21.6569H15.9219C16.1043 21.6569 16.2522 21.8048 16.2522 21.9872V23.0367C16.2522 23.2192 16.1043 23.3671 15.9219 23.3671H14.8724C14.69 23.3671 14.5421 23.2192 14.5421 23.0367V21.9872ZM14.5421 24.6297C14.5421 24.4473 14.69 24.2994 14.8724 24.2994H15.9219C16.1043 24.2994 16.2522 24.4473 16.2522 24.6297V25.6792C16.2522 25.8616 16.1043 26.0095 15.9219 26.0095H14.8724C14.69 26.0095 14.5421 25.8616 14.5421 25.6792V24.6297ZM14.5421 27.2722C14.5421 27.0898 14.69 26.9419 14.8724 26.9419H15.9219C16.1043 26.9419 16.2522 27.0898 16.2522 27.2722V28.3217C16.2522 28.5041 16.1043 28.652 15.9219 28.652H14.8724C14.69 28.652 14.5421 28.5041 14.5421 28.3217V27.2722Z" fill="white"/>
</svg>
