<svg width="173" height="20" viewBox="0 0 173 20" fill="none" xmlns="http://www.w3.org/2000/svg">
<path d="M13.2975 14.0872C13.2975 15.1953 13.021 16.2035 12.4681 17.1117C11.9152 18.0018 11.0858 18.7103 9.98001 19.2371C8.87419 19.7457 7.4827 20 5.80554 20C5.03147 20 4.31269 19.9546 3.6492 19.8638C2.98571 19.7729 2.34986 19.6458 1.74166 19.4823C1.15189 19.3006 0.571339 19.0736 0 18.8011V14.5777C0.995236 15.0318 2.0089 15.4133 3.041 15.7221C4.09153 16.0309 5.09598 16.1853 6.05435 16.1853C6.66255 16.1853 7.15096 16.1126 7.51956 15.9673C7.9066 15.8038 8.18305 15.5949 8.34892 15.3406C8.53323 15.0681 8.62538 14.7593 8.62538 14.4142C8.62538 13.9964 8.47794 13.6421 8.18305 13.3515C7.9066 13.0427 7.49192 12.752 6.93901 12.4796C6.3861 12.1889 5.71339 11.8619 4.92089 11.4986C4.33112 11.2443 3.75057 10.9537 3.17923 10.6267C2.62632 10.2816 2.11948 9.89101 1.65873 9.45504C1.2164 9.00091 0.857009 8.46503 0.580554 7.84741C0.32253 7.21163 0.193518 6.46685 0.193518 5.61308C0.193518 4.396 0.479188 3.37875 1.05053 2.56131C1.6403 1.7257 2.46044 1.08992 3.51097 0.65395C4.5615 0.217983 5.79633 0 7.21546 0C8.37657 0 9.44553 0.127157 10.4223 0.381471C11.3991 0.635785 12.3483 0.962761 13.2698 1.3624L11.777 4.98638C10.8923 4.60491 10.0629 4.31426 9.28887 4.11444C8.53323 3.89646 7.79602 3.78747 7.07723 3.78747C6.57962 3.78747 6.16493 3.86013 5.83319 4.00545C5.50144 4.13261 5.25263 4.32334 5.08676 4.57766C4.92089 4.81381 4.83795 5.09537 4.83795 5.42234C4.83795 5.80381 4.96697 6.13987 5.22499 6.43052C5.48301 6.703 5.88848 6.98456 6.44139 7.2752C6.9943 7.56585 7.72229 7.92007 8.62538 8.33788C9.60218 8.77384 10.4408 9.24614 11.1411 9.75477C11.8415 10.2634 12.3759 10.8629 12.7445 11.5531C13.1132 12.2253 13.2975 13.0699 13.2975 14.0872Z" fill="#333333"/>
<path d="M37.141 19.7275H31.7778L27.2163 11.8801L25.5299 12.97V19.7275H20.8025V0.272479H25.5299V8.96458C25.7695 8.56494 26.0275 8.16531 26.304 7.76567C26.5989 7.36603 26.8845 6.97548 27.161 6.59401L31.9713 0.272479H37.141L30.5614 8.93733L37.141 19.7275Z" fill="#333333"/>
<path d="M50.1566 7.92916L53.944 0.272479H59.0308L52.5065 12.1526V19.7275H47.8067V12.2888L41.2824 0.272479H46.3968L50.1566 7.92916Z" fill="#333333"/>
<path d="M71.5708 0.272479C73.3586 0.272479 74.833 0.490463 75.9941 0.92643C77.1736 1.34423 78.0583 1.9891 78.648 2.86104C79.2378 3.7148 79.5327 4.78656 79.5327 6.07629C79.5327 6.9119 79.376 7.65668 79.0627 8.31063C78.7494 8.96458 78.3255 9.53679 77.791 10.0272C77.275 10.5177 76.676 10.9264 75.9941 11.2534L81.772 19.7275H76.4917L72.0408 12.4251H70.1885V19.7275H65.4888V0.272479H71.5708ZM71.3773 3.92371H70.1885V8.80109H71.3773C72.1329 8.80109 72.7596 8.71935 73.2572 8.55586C73.7548 8.37421 74.1234 8.09264 74.363 7.71117C74.621 7.31153 74.75 6.82107 74.75 6.23978C74.75 5.71299 74.6302 5.2861 74.3906 4.95913C74.1511 4.61399 73.7824 4.35967 73.2848 4.19618C72.7872 4.01453 72.1514 3.92371 71.3773 3.92371Z" fill="#333333"/>
<path d="M99.6301 19.7275H88.1019V0.272479H99.6301V4.0327H92.8017V7.76567H99.1325V11.5259H92.8017V15.9128H99.6301V19.7275Z" fill="#333333"/>
<path d="M119.664 19.7275L118.448 15.5586H111.62L110.403 19.7275H105.261L111.979 0.190736H118.006L124.806 19.7275H119.664ZM116.236 7.79292C116.144 7.46594 116.015 7.02997 115.849 6.48501C115.702 5.92189 115.545 5.34968 115.379 4.76839C115.232 4.1871 115.112 3.69664 115.02 3.297C114.946 3.69664 114.826 4.19618 114.661 4.79564C114.513 5.37693 114.366 5.94914 114.218 6.51226C114.071 7.05722 113.951 7.48411 113.859 7.79292L112.698 11.6894H117.397L116.236 7.79292Z" fill="#333333"/>
<path d="M131.276 19.7275V0.272479H135.976V15.9401H143.8V19.7275H131.276Z" fill="#333333"/>
<path d="M159.73 19.7275L155.307 5.04087H155.196C155.233 5.40418 155.27 5.93097 155.307 6.62125C155.344 7.29337 155.381 8.01998 155.417 8.80109C155.454 9.56403 155.473 10.2816 155.473 10.9537V19.7275H151.271V0.272479H157.629L162.025 14.6594H162.135L166.669 0.272479H173V19.7275H168.632V10.8447C168.632 10.2271 168.641 9.54587 168.66 8.80109C168.697 8.03815 168.724 7.32062 168.743 6.6485C168.779 5.95822 168.807 5.43143 168.826 5.06812H168.715L164.153 19.7275H159.73Z" fill="#333333"/>
</svg>
