<svg width="220" height="27" viewBox="0 0 220 27" fill="none" xmlns="http://www.w3.org/2000/svg">
<path d="M17.41 18.755C17.41 20.1783 17.06 21.4733 16.36 22.64C15.66 23.7833 14.61 24.6933 13.21 25.37C11.81 26.0233 10.0483 26.35 7.925 26.35C6.945 26.35 6.035 26.2917 5.195 26.175C4.355 26.0583 3.55 25.895 2.78 25.685C2.03333 25.4517 1.29833 25.16 0.575 24.81V19.385C1.835 19.9683 3.11833 20.4583 4.425 20.855C5.755 21.2517 7.02667 21.45 8.24 21.45C9.01 21.45 9.62833 21.3567 10.095 21.17C10.585 20.96 10.935 20.6917 11.145 20.365C11.3783 20.015 11.495 19.6183 11.495 19.175C11.495 18.6383 11.3083 18.1833 10.935 17.81C10.585 17.4133 10.06 17.04 9.36 16.69C8.66 16.3167 7.80833 15.8967 6.805 15.43C6.05833 15.1033 5.32333 14.73 4.6 14.31C3.9 13.8667 3.25833 13.365 2.675 12.805C2.115 12.2217 1.66 11.5333 1.31 10.74C0.983333 9.92333 0.82 8.96667 0.82 7.87C0.82 6.30667 1.18167 5 1.905 3.95C2.65167 2.87666 3.69 2.06 5.02 1.5C6.35 0.939999 7.91333 0.659999 9.71 0.659999C11.18 0.659999 12.5333 0.823332 13.77 1.15C15.0067 1.47667 16.2083 1.89667 17.375 2.41L15.485 7.065C14.365 6.575 13.315 6.20167 12.335 5.945C11.3783 5.665 10.445 5.525 9.535 5.525C8.905 5.525 8.38 5.61833 7.96 5.805C7.54 5.96833 7.225 6.21333 7.015 6.54C6.805 6.84333 6.7 7.205 6.7 7.625C6.7 8.115 6.86333 8.54667 7.19 8.92C7.51667 9.27 8.03 9.63167 8.73 10.005C9.43 10.3783 10.3517 10.8333 11.495 11.37C12.7317 11.93 13.7933 12.5367 14.68 13.19C15.5667 13.8433 16.2433 14.6133 16.71 15.5C17.1767 16.3633 17.41 17.4483 17.41 18.755ZM47.5967 26H40.8067L35.0317 15.92L32.8967 17.32V26H26.9117V1.01H32.8967V12.175C33.2 11.6617 33.5267 11.1483 33.8767 10.635C34.25 10.1217 34.6117 9.62 34.9617 9.13L41.0517 1.01H47.5967L39.2667 12.14L47.5967 26ZM64.0748 10.845L68.8698 1.01H75.3098L67.0498 16.27V26H61.0998V16.445L52.8398 1.01H59.3148L64.0748 10.845Z" fill="#3056D3"/>
<path d="M91.1859 1.01C93.4492 1.01 95.3159 1.29 96.7859 1.85C98.2792 2.38666 99.3992 3.215 100.146 4.335C100.893 5.43167 101.266 6.80833 101.266 8.465C101.266 9.53833 101.068 10.495 100.671 11.335C100.274 12.175 99.7376 12.91 99.0609 13.54C98.4076 14.17 97.6492 14.695 96.7859 15.115L104.101 26H97.4159L91.7809 16.62H89.4359V26H83.4859V1.01H91.1859ZM90.9409 5.7H89.4359V11.965H90.9409C91.8976 11.965 92.6909 11.86 93.3209 11.65C93.9509 11.4167 94.4176 11.055 94.7209 10.565C95.0476 10.0517 95.2109 9.42167 95.2109 8.675C95.2109 7.99833 95.0592 7.45 94.7559 7.03C94.4526 6.58666 93.9859 6.26 93.3559 6.05C92.7259 5.81667 91.9209 5.7 90.9409 5.7ZM126.71 26H112.115V1.01H126.71V5.84H118.065V10.635H126.08V15.465H118.065V21.1H126.71V26ZM152.074 26L150.534 20.645H141.889L140.349 26H133.839L142.344 0.905H149.974L158.584 26H152.074ZM147.734 10.67C147.617 10.25 147.454 9.69 147.244 8.99C147.057 8.26667 146.859 7.53167 146.649 6.785C146.462 6.03833 146.311 5.40833 146.194 4.895C146.101 5.40833 145.949 6.05 145.739 6.82C145.552 7.56667 145.366 8.30167 145.179 9.025C144.992 9.725 144.841 10.2733 144.724 10.67L143.254 15.675H149.204L147.734 10.67ZM166.775 26V1.01H172.725V21.135H182.63V26H166.775ZM202.798 26L197.198 7.135H197.058C197.105 7.60167 197.152 8.27833 197.198 9.165C197.245 10.0283 197.292 10.9617 197.338 11.965C197.385 12.945 197.408 13.8667 197.408 14.73V26H192.088V1.01H200.138L205.703 19.49H205.843L211.583 1.01H219.598V26H214.068V14.59C214.068 13.7967 214.08 12.9217 214.103 11.965C214.15 10.985 214.185 10.0633 214.208 9.2C214.255 8.31333 214.29 7.63667 214.313 7.17H214.173L208.398 26H202.798Z" fill="#333333"/>
</svg>
