<svg width="25" height="24" viewBox="0 0 25 24" fill="none" xmlns="http://www.w3.org/2000/svg">
<path d="M8.99789 3.84277C9.36119 3.84277 9.69589 4.03978 9.87224 4.3574L11.0954 6.56081C11.2556 6.84931 11.2631 7.19826 11.1155 7.49341L9.93714 9.85026C9.93714 9.85026 10.2786 11.606 11.7078 13.0352C13.137 14.4644 14.8869 14.8 14.8869 14.8L17.2433 13.6218C17.5387 13.4741 17.8879 13.4817 18.1765 13.6422L20.3861 14.8707C20.7034 15.0471 20.9002 15.3816 20.9002 15.7447V18.2814C20.9002 19.5733 19.7003 20.5063 18.4762 20.0933C15.9623 19.245 12.0599 17.6299 9.58654 15.1565C7.11309 12.6831 5.498 8.78071 4.64973 6.26676C4.23672 5.04271 5.16976 3.84277 6.46159 3.84277H8.99789Z" fill="#FF3D00" stroke="#FF3D00" stroke-width="3" stroke-linejoin="round"/>
</svg>
