<svg width="140" height="140" viewBox="0 0 140 140" fill="none" xmlns="http://www.w3.org/2000/svg">
<circle cx="70" cy="70" r="69" fill="#FF6633" fill-opacity="0.2" stroke="white" stroke-width="2"/>
<circle cx="70.1239" cy="70.1237" r="53.1237" fill="#FF6633" fill-opacity="0.6" stroke="white" stroke-width="2"/>
<g filter="url(#filter0_d_771_6587)">
<mask id="path-3-inside-1_771_6587" fill="white">
<path fill-rule="evenodd" clip-rule="evenodd" d="M82.3819 82.2555C82.3911 82.2464 82.4002 82.2373 82.4094 82.2281C89.2629 75.3746 89.2629 64.2629 82.4094 57.4094C75.5559 50.5559 64.4441 50.5559 57.5906 57.4094C50.7371 64.2629 50.7371 75.3746 57.5906 82.2281C57.5998 82.2373 57.6089 82.2464 57.6181 82.2555L70 94.6374L82.3819 82.2555Z"/>
</mask>
<path fill-rule="evenodd" clip-rule="evenodd" d="M82.3819 82.2555C82.3911 82.2464 82.4002 82.2373 82.4094 82.2281C89.2629 75.3746 89.2629 64.2629 82.4094 57.4094C75.5559 50.5559 64.4441 50.5559 57.5906 57.4094C50.7371 64.2629 50.7371 75.3746 57.5906 82.2281C57.5998 82.2373 57.6089 82.2464 57.6181 82.2555L70 94.6374L82.3819 82.2555Z" fill="#FF6633"/>
<path d="M82.3819 82.2555L80.9706 80.8384L80.9677 80.8413L82.3819 82.2555ZM57.6181 82.2555L59.0323 80.8413L59.0294 80.8384L57.6181 82.2555ZM70 94.6374L68.5858 96.0516L70 97.4658L71.4142 96.0516L70 94.6374ZM80.9952 80.8139C80.9871 80.8219 80.9789 80.8301 80.9706 80.8384L83.7932 83.6726C83.8032 83.6627 83.8133 83.6526 83.8236 83.6423L80.9952 80.8139ZM80.9952 58.8236C87.0676 64.896 87.0676 74.7414 80.9952 80.8139L83.8236 83.6423C91.4581 76.0078 91.4581 63.6297 83.8236 55.9952L80.9952 58.8236ZM59.0048 58.8236C65.0773 52.7511 74.9227 52.7511 80.9952 58.8236L83.8236 55.9952C76.189 48.3606 63.811 48.3606 56.1764 55.9952L59.0048 58.8236ZM59.0048 80.8139C52.9324 74.7414 52.9324 64.896 59.0048 58.8236L56.1764 55.9952C48.5419 63.6297 48.5419 76.0078 56.1764 83.6423L59.0048 80.8139ZM59.0294 80.8384C59.0211 80.8301 59.0129 80.8219 59.0048 80.8139L56.1764 83.6423C56.1867 83.6526 56.1968 83.6627 56.2068 83.6726L59.0294 80.8384ZM71.4142 93.2232L59.0323 80.8413L56.2039 83.6697L68.5858 96.0516L71.4142 93.2232ZM80.9677 80.8413L68.5858 93.2232L71.4142 96.0516L83.7961 83.6697L80.9677 80.8413Z" fill="white" mask="url(#path-3-inside-1_771_6587)"/>
</g>
<circle cx="70" cy="70.0711" r="5" transform="rotate(45 70 70.0711)" fill="white"/>
<defs>
<filter id="filter0_d_771_6587" x="42.4504" y="46.2695" width="55.0991" height="62.3682" filterUnits="userSpaceOnUse" color-interpolation-filters="sRGB">
<feFlood flood-opacity="0" result="BackgroundImageFix"/>
<feColorMatrix in="SourceAlpha" type="matrix" values="0 0 0 0 0 0 0 0 0 0 0 0 0 0 0 0 0 0 127 0" result="hardAlpha"/>
<feOffset dy="4"/>
<feGaussianBlur stdDeviation="5"/>
<feComposite in2="hardAlpha" operator="out"/>
<feColorMatrix type="matrix" values="0 0 0 0 0 0 0 0 0 0 0 0 0 0 0 0 0 0 0.2 0"/>
<feBlend mode="normal" in2="BackgroundImageFix" result="effect1_dropShadow_771_6587"/>
<feBlend mode="normal" in="SourceGraphic" in2="effect1_dropShadow_771_6587" result="shape"/>
</filter>
</defs>
</svg>
