<svg width="56" height="56" viewBox="0 0 56 56" fill="none" xmlns="http://www.w3.org/2000/svg">
<g clip-path="url(#clip0_90_1458)">
<g filter="url(#filter0_d_90_1458)">
<mask id="path-1-inside-1_90_1458" fill="white">
<path fill-rule="evenodd" clip-rule="evenodd" d="M40.3819 36.2555C40.3911 36.2464 40.4002 36.2373 40.4094 36.2281C47.2629 29.3746 47.2629 18.2629 40.4094 11.4094C33.5559 4.55586 22.4441 4.55586 15.5906 11.4094C8.73713 18.2629 8.73713 29.3746 15.5906 36.2281C15.5998 36.2373 15.6089 36.2464 15.6181 36.2555L28 48.6374L40.3819 36.2555Z"/>
</mask>
<path fill-rule="evenodd" clip-rule="evenodd" d="M40.3819 36.2555C40.3911 36.2464 40.4002 36.2373 40.4094 36.2281C47.2629 29.3746 47.2629 18.2629 40.4094 11.4094C33.5559 4.55586 22.4441 4.55586 15.5906 11.4094C8.73713 18.2629 8.73713 29.3746 15.5906 36.2281C15.5998 36.2373 15.6089 36.2464 15.6181 36.2555L28 48.6374L40.3819 36.2555Z" fill="#FF6633"/>
<path d="M40.3819 36.2555L38.9706 34.8384L38.9677 34.8413L40.3819 36.2555ZM15.6181 36.2555L17.0323 34.8413L17.0294 34.8384L15.6181 36.2555ZM28 48.6374L26.5858 50.0516L28 51.4658L29.4142 50.0516L28 48.6374ZM38.9952 34.8139C38.9871 34.8219 38.9789 34.8301 38.9706 34.8384L41.7932 37.6726C41.8032 37.6627 41.8133 37.6526 41.8236 37.6423L38.9952 34.8139ZM38.9952 12.8236C45.0676 18.896 45.0676 28.7414 38.9952 34.8139L41.8236 37.6423C49.4581 30.0078 49.4581 17.6297 41.8236 9.99516L38.9952 12.8236ZM17.0048 12.8236C23.0773 6.75113 32.9227 6.75113 38.9952 12.8236L41.8236 9.99516C34.189 2.3606 21.811 2.3606 14.1764 9.99516L17.0048 12.8236ZM17.0048 34.8139C10.9324 28.7414 10.9324 18.896 17.0048 12.8236L14.1764 9.99516C6.54186 17.6297 6.54186 30.0078 14.1764 37.6423L17.0048 34.8139ZM17.0294 34.8384C17.0211 34.8301 17.0129 34.8219 17.0048 34.8139L14.1764 37.6423C14.1867 37.6526 14.1968 37.6627 14.2068 37.6726L17.0294 34.8384ZM29.4142 47.2232L17.0323 34.8413L14.2039 37.6697L26.5858 50.0516L29.4142 47.2232ZM38.9677 34.8413L26.5858 47.2232L29.4142 50.0516L41.7961 37.6697L38.9677 34.8413Z" fill="white" mask="url(#path-1-inside-1_90_1458)"/>
</g>
<circle cx="28" cy="24.0711" r="5" transform="rotate(45 28 24.0711)" fill="white"/>
</g>
<defs>
<filter id="filter0_d_90_1458" x="0.450562" y="0.269531" width="55.0989" height="62.3682" filterUnits="userSpaceOnUse" color-interpolation-filters="sRGB">
<feFlood flood-opacity="0" result="BackgroundImageFix"/>
<feColorMatrix in="SourceAlpha" type="matrix" values="0 0 0 0 0 0 0 0 0 0 0 0 0 0 0 0 0 0 127 0" result="hardAlpha"/>
<feOffset dy="4"/>
<feGaussianBlur stdDeviation="5"/>
<feComposite in2="hardAlpha" operator="out"/>
<feColorMatrix type="matrix" values="0 0 0 0 0 0 0 0 0 0 0 0 0 0 0 0 0 0 0.2 0"/>
<feBlend mode="normal" in2="BackgroundImageFix" result="effect1_dropShadow_90_1458"/>
<feBlend mode="normal" in="SourceGraphic" in2="effect1_dropShadow_90_1458" result="shape"/>
</filter>
<clipPath id="clip0_90_1458">
<rect width="56" height="56" fill="white"/>
</clipPath>
</defs>
</svg>
